<svg 
 xmlns="http://www.w3.org/2000/svg"
 xmlns:xlink="http://www.w3.org/1999/xlink"
 width="170px" height="12px">
<path fill-rule="evenodd"  fill="rgb(255, 255, 255)"
 d="M41.174,6.905 C39.788,6.483 39.073,4.887 38.231,4.148 C37.784,3.757 37.551,4.604 37.385,5.104 C36.932,6.734 36.106,8.951 34.943,9.717 C33.926,10.386 32.309,10.337 31.342,9.661 C29.821,8.599 29.462,5.562 28.524,3.275 C28.179,2.433 27.819,1.249 27.147,1.364 C26.781,1.427 26.409,2.228 26.267,2.755 C25.957,3.630 25.863,4.244 25.613,5.431 C25.034,8.225 24.836,9.637 23.389,11.245 C22.631,12.088 20.835,12.265 19.695,11.572 C18.526,10.862 18.054,9.070 17.409,7.588 C17.020,6.694 16.679,5.866 16.470,5.376 C16.342,5.077 15.717,4.999 15.468,5.459 C15.120,6.100 15.066,6.305 15.061,6.305 C13.961,8.614 12.460,12.938 9.049,10.262 C8.385,9.742 8.121,9.224 7.703,8.597 C7.486,8.273 7.225,7.520 6.826,7.369 C6.335,7.184 5.335,7.123 4.665,7.123 C3.110,7.123 1.555,7.014 -0.000,7.014 C-0.000,6.468 -0.000,6.632 -0.000,6.086 C2.464,5.985 7.232,5.784 7.890,6.195 C9.147,6.980 9.441,9.769 11.021,9.553 C12.186,9.393 13.130,6.002 13.965,4.912 C14.302,4.472 15.163,3.517 16.501,3.958 C18.059,4.470 19.262,7.379 19.851,9.006 C20.020,9.473 20.664,10.890 21.511,10.617 C22.040,10.446 22.707,9.024 22.888,8.351 C23.654,5.518 23.977,3.737 24.798,1.856 C25.120,1.119 26.000,-0.210 27.397,0.027 C29.831,0.438 30.914,4.565 31.593,6.714 C31.810,7.401 32.132,8.186 32.877,8.461 C33.839,8.815 34.167,7.870 34.442,7.397 C35.191,6.108 35.948,2.939 37.573,2.592 C39.274,2.230 40.569,4.352 41.456,5.268 C42.529,6.375 46.018,6.061 48.000,6.059 C48.000,6.605 48.000,6.414 48.000,6.960 C45.912,6.973 42.674,7.362 41.174,6.905 ZM69.002,10.041 L69.002,11.696 L59.002,11.696 L59.002,1.145 L61.206,1.145 L61.206,10.041 L69.002,10.041 ZM80.002,11.696 L77.798,11.696 L77.798,1.145 L80.002,1.145 L80.002,11.696 ZM95.778,11.992 C93.692,11.992 92.110,11.435 91.033,10.322 C90.083,9.337 89.608,8.037 89.608,6.420 C89.608,4.805 90.083,3.504 91.033,2.519 C92.110,1.406 93.692,0.849 95.778,0.849 C97.273,0.849 98.649,1.263 99.677,2.090 C100.617,2.849 101.151,3.835 101.279,5.046 L98.898,5.046 C98.791,4.258 98.433,3.637 97.826,3.184 C97.219,2.731 96.450,2.504 95.519,2.504 C94.462,2.504 93.619,2.844 92.992,3.524 C92.317,4.253 91.979,5.283 91.979,6.613 C91.979,7.716 92.322,8.612 93.007,9.302 C93.693,9.992 94.579,10.337 95.666,10.337 C96.695,10.337 97.498,10.031 98.076,9.420 C98.517,8.958 98.791,8.371 98.898,7.662 L101.279,7.662 C100.857,10.549 98.859,11.992 95.284,11.992 L95.778,11.992 ZM97.002,5.873 L99.002,5.873 L99.002,10.041 L97.002,10.041 L97.002,8.386 L96.002,8.386 L96.002,7.115 L97.002,7.115 L97.002,5.873 ZM112.002,11.696 L109.798,11.696 L109.798,1.145 L112.002,1.145 L112.002,11.696 ZM123.002,1.145 L134.002,1.145 L134.002,2.800 L130.254,2.800 L130.254,11.696 L128.050,11.696 L128.050,2.800 L123.002,2.800 L123.002,1.145 Z"/>
</svg>