<svg id="Logo" xmlns="http://www.w3.org/2000/svg" width="210" height="68" viewBox="0 0 210 68">
  <defs>
    <style>
      .cls-1 {
        fill: #010101;
        fill-rule: evenodd;
      }
    </style>
  </defs>
  <path id="Ligit" class="cls-1" d="M38.712,65.655a13.879,13.879,0,0,1-15.423,0q-7.712-4.681-15.58-9.088A14.156,14.156,0,0,1,0,43.153V40.541a11.886,11.886,0,0,0,2.475,3.4c6.964,6.245,10.476-3.973,12.466-9.234,0.01,0,.185-0.542.9-2.038a0.937,0.937,0,0,1,1.79-.127c0.427,1.141,1.124,3.074,1.918,5.158,1.317,3.46,2.281,7.642,4.667,9.3,2.328,1.616,5.995,1.2,7.543-.764,2.954-3.75,3.359-7.044,4.539-13.565a49.653,49.653,0,0,1,1.337-6.245c0.29-1.23,1.049-3.1,1.8-3.245,1.373-.267,2.108,2.494,2.813,4.458,1.914,5.335,2.646,12.423,5.754,14.9a6.333,6.333,0,0,0,7.352.127C57.51,41.042,60.024,36.32,62,32.945V43.15a14.156,14.156,0,0,1-7.709,13.417Q46.424,60.974,38.712,65.655ZM51.123,39.742C49.6,39.1,48.946,37.27,48.5,35.667c-1.387-5.013-3.6-14.643-8.566-15.6-2.853-.551-4.65,2.55-5.306,4.268-1.677,4.391-2.337,8.546-3.9,15.157C30.36,41.056,29,44.374,27.918,44.773c-1.728.636-3.044-2.67-3.388-3.757-1.2-3.8-3.66-10.585-6.84-11.783-2.732-1.028-3.977,1.2-4.666,2.23-1.7,2.543-4.569,10.719-6.521,10.826-3.26.18-3.83-6-6.393-7.832C0.082,34.437.03,34.428,0,34.41v-9.6A14.158,14.158,0,0,1,7.709,11.4q7.868-4.407,15.58-9.087a13.874,13.874,0,0,1,15.423,0Q46.424,6.99,54.291,11.4A14.158,14.158,0,0,1,62,24.815v1.512c-2.914,3.759-5.885,8.421-7.68,10.932C53.6,38.267,53.088,40.57,51.123,39.742ZM99.416,54V19.6H79.976V14.8h44.879v4.8H105.415V54h-6ZM136.871,54V14.8h5.936V54h-5.936Zm33.56.672a14.7,14.7,0,0,1-7.252-1.82,12.9,12.9,0,0,1-4.956-5.068,15.393,15.393,0,0,1-1.792-7.56,16.049,16.049,0,0,1,1.764-7.672,12.849,12.849,0,0,1,4.928-5.152,15.017,15.017,0,0,1,14.476,0,12.871,12.871,0,0,1,4.7,4.844,13.491,13.491,0,0,1,1.68,6.664q0,.56-0.028,1.2t-0.084,1.316H162.535a7.921,7.921,0,0,0,2.576,5.712,8.2,8.2,0,0,0,5.628,2.128,7.8,7.8,0,0,0,7.9-5.1h6.02a13.237,13.237,0,0,1-4.62,6.86A13.542,13.542,0,0,1,170.431,54.672Zm7.28-18.732a7.263,7.263,0,0,0-2.3-4.9,7.686,7.686,0,0,0-5.32-1.9,8.406,8.406,0,0,0-5.264,1.764,7.715,7.715,0,0,0-2.8,5.04h15.68Zm-6.216,7v3.64h6.72V35.94h-6.72ZM198.48,54V14.8h5.936V54H198.48Z"/>
</svg>